#!OML:ASF I:\salsa\salsa 7_09\Patient 1\Session 1\dancermale.ASF
:FULLY-SPECIFIED
:DEGREES
1845
root -2.0049 16.0721 -3.66586 -532.84 180.055 194.699
lowerback 6.78593 -5.0473 -8.66489
upperback -3.38727 -7.78468 -2.56827
thorax -6.60765 -3.50279 3.01329
lowerneck -11.0098 0.396509 -2.32599
upperneck 25.0198 2.53422 -6.01537
head 9.81184 0.256475 -1.41521
rclavicle -8.33405e-014 -9.14409e-015
rhumerus -45.2008 -4.20144 -80.8543
rradius 127.291
rwrist -14.2908
rhand -65.9151 -88.1692
rfingers 7.12502
rthumb -37.7628 -245.967
lclavicle -8.33405e-014 -9.14409e-015
lhumerus -25.9214 -19.2827 110.86
lradius 88.6305
lwrist 96.9555
lhand -14.8829 54.3117
lfingers 7.12502
lthumb 11.2776 83.9885
rfemur -39.1179 0.61007 -4.42143
rtibia 57.576
rfoot -24.6288 -17.6046
rtoes -4.42986
lfemur -9.04601 6.92843 1.55814
ltibia 24.5846
lfoot 24.6051 25.0686
ltoes 12.965
1846
root -2.00619 16.0542 -3.62988 -532.534 179.753 194.609
lowerback 6.02521 -5.10064 -7.926
upperback -3.36535 -7.7288 -2.98123
thorax -6.30084 -3.53713 2.10481
lowerneck -11.0742 0.241919 -2.10451
upperneck 25.05 2.24358 -5.89092
head 9.82583 0.155324 -1.44339
rclavicle -1.05107e-014 1.03368e-013
rhumerus -44.6662 -4.69545 -80.9409
rradius 126.247
rwrist -14.4911
rhand -66.6079 91.6475
rfingers 7.12502
rthumb -38.4169 -242.668
lclavicle -1.05107e-014 1.03368e-013
lhumerus -25.1528 -19.8981 110.33
lradius 87.5981
lwrist 96.5222
lhand -14.0633 56.4582
lfingers 7.12502
lthumb 12.068 86.0902
rfemur -39.3645 0.0873649 -4.25054
rtibia 57.995
rfoot -24.7582 -17.764
rtoes -6.392
lfemur -8.82 6.48031 1.74455
ltibia 23.6915
lfoot 24.9473 24.8846
ltoes 12.4573
1847
root -2.00523 16.0366 -3.59624 -532.26 179.431 194.556
lowerback 5.36154 -5.14674 -7.32389
upperback -3.33379 -7.68784 -3.30767
thorax -6.00945 -3.56687 1.37257
lowerneck -11.246 0.0993655 -1.86496
upperneck 25.1805 2.02164 -5.94402
head 9.90133 0.0632341 -1.53122
rclavicle 3.57564e-014 -6.08281e-014
rhumerus -44.2208 -5.2802 -80.6282
rradius 125.252
rwrist -15.437
rhand -67.4159 93.5509
rfingers 7.12502
rthumb -39.179 -240.981
lclavicle 3.57564e-014 -6.08281e-014
lhumerus -24.1836 -20.3327 109.903
lradius 86.3189
lwrist 95.5644
lhand -13.2976 58.5212
lfingers 7.12502
lthumb 12.8063 88.1084
rfemur -39.5777 -0.332986 -4.13719
rtibia 58.4135
rfoot -24.8295 -17.8851
rtoes -7.75706
lfemur -8.57786 6.28877 1.86892
ltibia 22.901
lfoot 24.7405 25.2114
ltoes 12.4739
1848
root -2.00333 16.0191 -3.56543 -532.07 179.029 194.55
lowerback 4.8704 -5.23164 -6.92078
upperback -3.28121 -7.72721 -3.49567
thorax -5.74613 -3.62078 0.913341
lowerneck -11.5984 0.00958983 -1.72931
upperneck 25.4496 1.9476 -6.13363
head 10.0681 0.00741195 -1.63604
rclavicle -1.26477e-013 -7.79236e-014
rhumerus -43.8552 -5.51872 -80.2537
rradius 124.431
rwrist -15.5269
rhand -67.5329 96.4583
rfingers 7.12502
rthumb -39.2892 -238.105
lclavicle -1.26477e-013 -7.79236e-014
lhumerus -23.1143 -20.6186 109.621
lradius 85.1604
lwrist 94.7359
lhand -12.4278 60.6344
lfingers 7.12502
lthumb 13.6447 -90.1672
rfemur -39.6373 -0.698753 -4.10094
rtibia 58.7599
rfoot -25.0433 -17.7947
rtoes -8.02032
lfemur -8.37718 6.35663 1.94158
ltibia 22.2419
lfoot 24.3627 25.5996
ltoes 12.8541
1849
root -2.00391 16.0039 -3.54139 -531.943 178.648 194.679
lowerback 4.60361 -5.30661 -6.7827
upperback -3.27352 -7.7985 -3.63958
thorax -5.61969 -3.67085 0.668924
lowerneck -11.8177 -0.0527865 -1.77872
upperneck 25.6505 1.90444 -6.17328
head 10.1835 -0.0308085 -1.65155
rclavicle 1.88348e-014 3.06128e-014
rhumerus -43.5412 -5.56199 -79.8395
rradius 123.623
rwrist -15.4275
rhand -67.4637 99.9587
rfingers 7.12502
rthumb -39.224 -234.586
lclavicle 1.88348e-014 3.06128e-014
lhumerus -22.1772 -20.8842 109.519
lradius 84.2531
lwrist 93.6676
lhand -11.5566 62.3996
lfingers 7.12502
lthumb 14.4842 -91.874
rfemur -39.641 -0.919338 -4.2205
rtibia 59.0689
rfoot -25.243 -17.6821
rtoes -7.7194
lfemur -8.15139 6.56156 1.82499
ltibia 21.5451
lfoot 24.1753 26.0497
ltoes 12.7332
1850
root -2.00718 15.9921 -3.52073 -531.864 178.228 194.808
lowerback 4.56579 -5.37894 -6.67885
upperback -3.36193 -7.89883 -3.75418
thorax -5.71724 -3.72316 0.504269
lowerneck -11.7554 -0.0881977 -1.94622
upperneck 25.7831 1.87339 -6.07765
head 10.2174 -0.052946 -1.59493
rclavicle -7.11649e-014 -4.25399e-014
rhumerus -43.363 -5.48423 -79.349
rradius 122.795
rwrist -15.4355
rhand -67.4766 103.149
rfingers 7.12502
rthumb -39.2362 -231.399
lclavicle -7.11649e-014 -4.25399e-014
lhumerus -21.5049 -21.0657 109.616
lradius 83.5425
lwrist 92.0684
lhand -10.5328 63.9356
lfingers 7.12502
lthumb 15.4706 -93.3365
rfemur -39.5483 -1.06022 -4.32609
rtibia 59.3137
rfoot -25.363 -17.8088
rtoes -8.05545
lfemur -7.88017 6.8403 1.66977
ltibia 20.7729
lfoot 24.135 26.5331
ltoes 11.7358
